<svg width="32" height="32" viewBox="0 0 32 32" fill="none" xmlns="http://www.w3.org/2000/svg">
<path fill-rule="evenodd" clip-rule="evenodd" d="M16.4516 2.42773L16.4533 2.42774H16.4557L16.4574 2.42773C16.895 2.42887 17.2441 2.55774 17.5294 2.76166C17.7721 2.93514 17.9552 3.15704 18.0797 3.30802L18.1043 3.33783C18.2482 3.51157 18.333 3.605 18.4279 3.66904C18.5013 3.71853 18.6011 3.76342 18.7874 3.76342C19.0317 3.76342 19.2891 3.71872 19.6054 3.65641L19.6878 3.64006C19.9672 3.58451 20.2994 3.51845 20.6324 3.5011C21.0135 3.48124 21.4321 3.52133 21.8565 3.71574C22.2808 3.91016 22.66 4.23556 23.0018 4.70641L23.2931 5.1077L21.1774 7.8841C21.214 7.92762 21.2485 7.97303 21.2806 8.02018H20.9226C20.0366 8.02018 19.3176 8.73529 19.3112 9.61984C19.3042 8.73591 18.5855 8.02153 17.6999 8.02153L12.2189 8.02018C12.0072 8.02018 11.7993 8.03679 11.5965 8.06878C11.6373 8.00407 11.6825 7.94238 11.7316 7.8841L9.6159 5.1077L9.9072 4.70641C10.249 4.23556 10.6282 3.91016 11.0525 3.71574C11.4768 3.52133 11.8955 3.48124 12.2766 3.5011C12.6095 3.51845 12.9418 3.58451 13.2211 3.64006L13.3036 3.65641C13.6199 3.71872 13.8773 3.76342 14.1216 3.76342C14.3079 3.76342 14.4077 3.71853 14.4811 3.66904C14.576 3.605 14.6608 3.51157 14.8046 3.33783L14.8293 3.30802C14.9538 3.15704 15.1369 2.93514 15.3796 2.76166C15.6649 2.55774 16.0139 2.42887 16.4516 2.42773ZM21.6015 5.12774L19.9524 7.29173C19.936 7.29126 19.9196 7.29102 19.9031 7.29102H13.0059C12.9894 7.29102 12.9729 7.29126 12.9565 7.29173L11.3075 5.12774C11.4164 5.03182 11.517 4.96957 11.6079 4.9279C11.7828 4.84778 11.9727 4.82041 12.2072 4.83263C12.4392 4.84471 12.6779 4.89189 12.9776 4.95111L13.0459 4.9646C13.357 5.02588 13.7316 5.09675 14.1216 5.09675C14.5691 5.09675 14.9294 4.97495 15.2268 4.77435C15.4976 4.59162 15.692 4.35681 15.8243 4.19698L15.8315 4.1883C15.9833 4.00501 16.0635 3.91175 16.1549 3.8464C16.2197 3.80006 16.3 3.76156 16.4545 3.76107C16.609 3.76156 16.6892 3.80006 16.7541 3.8464C16.8455 3.91175 16.9256 4.00501 17.0774 4.1883L17.0846 4.197C17.217 4.35682 17.4114 4.59163 17.6822 4.77435C17.9796 4.97495 18.3398 5.09675 18.7874 5.09675C19.1774 5.09675 19.552 5.02588 19.8631 4.9646L19.9314 4.95111C20.2311 4.89189 20.4698 4.84471 20.7017 4.83263C20.9363 4.82041 21.1262 4.84778 21.3011 4.9279C21.392 4.96957 21.4926 5.03182 21.6015 5.12774Z" fill="#87B9D7"/>
<path d="M8.25586 14.6007C7.22461 16.6742 6.44922 19.1685 6.44922 22.0022C6.44922 25.187 7.27711 27.1485 8.67024 28.2808C10.0355 29.3904 11.7921 29.5711 13.3242 29.5711H19.5848C21.1168 29.5711 22.8734 29.3904 24.2387 28.2808C25.6319 27.1485 26.4598 25.187 26.4598 22.0022C26.4598 21.4632 26.4317 20.9365 26.3792 20.4227C26.0863 20.7246 25.6763 20.9123 25.2224 20.9123H25.0844C25.112 21.2694 25.1264 21.6327 25.1264 22.0022C25.1264 24.9777 24.3559 26.4673 23.3978 27.2461C22.4118 28.0475 21.0642 28.2378 19.5848 28.2378H13.3242C11.8447 28.2378 10.4972 28.0475 9.5112 27.2461C8.55306 26.4673 7.78255 24.9777 7.78255 22.0022C7.78255 19.3156 8.5466 16.9498 9.55343 14.9887C9.14689 15.1295 8.71031 15.206 8.25586 15.206V14.6007Z" fill="#87B9D7"/>
<path fill-rule="evenodd" clip-rule="evenodd" d="M19.3126 11.2445C18.9002 11.6575 18.3302 11.913 17.7005 11.913L13.5531 11.9119C13.2168 11.9119 12.8227 12.2162 12.6275 12.7741C11.9963 14.5787 10.2786 15.8747 8.25651 15.8747C8.06422 15.8747 7.89094 15.7932 7.76927 15.663C7.70793 15.8084 7.64808 15.9555 7.58984 16.1043L7.58984 10.3008H4.92318L4.92318 18.3008H6.89543C6.79056 18.7341 6.70173 19.1787 6.63164 19.6341H4.25651C3.88832 19.6341 3.58984 19.3356 3.58984 18.9674V9.63411C3.58984 9.26592 3.88832 8.96745 4.25651 8.96745H8.25651C8.39019 8.96745 8.51468 9.00679 8.61903 9.07454C9.46779 8.0259 10.7654 7.35547 12.2196 7.35547L17.7005 7.35682C18.3295 7.35686 18.8989 7.61179 19.3112 8.02394C19.7235 7.61096 20.2936 7.35547 20.9233 7.35547H23.655C24.9131 7.35547 25.9331 8.3754 25.9331 9.63354C25.9331 9.96999 25.8601 10.2894 25.7292 10.5768H25.7375C26.9956 10.5768 28.0155 11.5968 28.0155 12.8549C28.0155 13.3903 27.8308 13.8826 27.5216 14.2715C28.0616 14.6881 28.4094 15.3415 28.4094 16.0762C28.4094 16.9631 27.9027 17.7315 27.163 18.1079C27.3774 18.4553 27.5011 18.8646 27.5011 19.3028C27.5011 20.561 26.4812 21.5809 25.2231 21.5809H23.9688C22.7107 21.5809 21.6908 20.561 21.6908 19.3028C21.6908 18.8359 21.8312 18.4019 22.0722 18.0405C21.3998 17.6445 20.9486 16.9131 20.9486 16.0762C20.9486 15.6097 21.0888 15.1759 21.3295 14.8147C20.6613 14.4176 20.2135 13.6885 20.2135 12.8549C20.2135 12.4984 20.2954 12.161 20.4414 11.8606C20.0058 11.7668 19.6165 11.5484 19.3126 11.2445ZM8.92318 11.9852C8.92318 10.1647 10.3989 8.68889 12.2194 8.6888L17.7005 8.69015C18.2184 8.69015 18.6389 9.10681 18.6452 9.62318L18.6452 9.63354L18.6452 9.64581C18.6394 10.1625 18.2186 10.5795 17.7005 10.5796L13.5534 10.5786C12.4166 10.5783 11.6602 11.5013 11.369 12.3338C10.9905 13.4159 10.0638 14.2396 8.92318 14.4739V11.9852ZM19.9786 9.64525C19.9849 10.1616 20.4054 10.5783 20.9233 10.5783H22.4094C22.4367 10.5773 22.4641 10.5768 22.4916 10.5768H23.7079C24.205 10.5494 24.5997 10.1376 24.5997 9.63354C24.5997 9.11178 24.1768 8.6888 23.655 8.6888H20.9233C20.4051 8.6888 19.9844 9.10589 19.9786 9.62262L19.9786 9.63489L19.9786 9.64525ZM23.655 11.9116H22.4387C21.9416 11.939 21.5469 12.3509 21.5469 12.8549C21.5469 13.3767 21.9698 13.7996 22.4916 13.7996H23.1445C23.1717 13.7987 23.1991 13.7982 23.2266 13.7982H25.7903C26.2875 13.7708 26.6822 13.3589 26.6822 12.8549C26.6822 12.3331 26.2592 11.9102 25.7375 11.9102H23.7372C23.7099 11.9111 23.6825 11.9116 23.655 11.9116ZM23.1738 15.133H25.7375C25.765 15.133 25.7924 15.1325 25.8196 15.1315H26.1313C26.6531 15.1315 27.0761 15.5545 27.0761 16.0762C27.0761 16.598 26.6531 17.021 26.1313 17.021H23.2266C22.7049 17.021 22.2819 16.598 22.2819 16.0762C22.2819 15.5722 22.6766 15.1604 23.1738 15.133ZM23.9688 18.3581C23.4471 18.3581 23.0241 18.781 23.0241 19.3028C23.0241 19.8246 23.4471 20.2476 23.9688 20.2476H25.2231C25.7448 20.2476 26.1678 19.8246 26.1678 19.3028C26.1678 18.781 25.7448 18.3581 25.2231 18.3581H23.9688Z" fill="#4A5560"/>
<path d="M16.455 22.4804C15.8106 22.4804 15.5854 21.7428 15.5776 21.6496H14.0247C14.0624 22.1382 14.2378 22.6061 14.5305 22.9991C14.8232 23.3921 15.2213 23.6942 15.6786 23.8703V25.5241H17.2315V23.9246C17.6703 23.8126 18.0641 23.5686 18.3599 23.2257C18.6556 22.8827 18.839 22.4573 18.8853 22.0068C18.8853 20.8965 18.6058 20.2753 16.851 19.3125C15.6242 18.6447 15.6242 18.4739 15.6242 18.0236C15.6832 17.856 15.7978 17.7137 15.949 17.6205C16.1002 17.5272 16.2788 17.4886 16.455 17.5111C17.0995 17.5111 17.3246 18.2488 17.3324 18.3342H18.8853C18.8505 17.8429 18.6764 17.3716 18.3835 16.9756C18.0906 16.5796 17.691 16.2752 17.2315 16.098V14.4674H15.6786V16.0825C15.2486 16.1977 14.8642 16.4417 14.5769 16.7818C14.2896 17.1218 14.1132 17.5416 14.0713 17.9848C14.0713 19.0951 14.3508 19.7163 16.1056 20.6791C17.3324 21.3468 17.3324 21.5176 17.3324 21.968C17.2721 22.1445 17.1503 22.2935 16.9892 22.3876C16.8281 22.4817 16.6384 22.5147 16.455 22.4804Z" fill="#4A5560"/>
</svg>
