<svg width="24" height="24" viewBox="0 0 24 24" fill="none" xmlns="http://www.w3.org/2000/svg">
<path d="M12 1.5C17.799 1.5 22.5 6.20101 22.5 12C22.5 17.799 17.799 22.5 12 22.5C6.20101 22.5 1.5 17.799 1.5 12C1.5 6.20101 6.20101 1.5 12 1.5ZM12 3C7.02944 3 3 7.02944 3 12C3 16.9706 7.02944 21 12 21C16.9706 21 21 16.9706 21 12C21 7.02944 16.9706 3 12 3ZM12.75 10.5V17.25H11.25V10.5H12.75ZM12 6.75C12.6213 6.75 13.125 7.25368 13.125 7.875C13.125 8.49632 12.6213 9 12 9C11.3787 9 10.875 8.49632 10.875 7.875C10.875 7.25368 11.3787 6.75 12 6.75Z" fill="#4A5560"/>
</svg>
